<svg xmlns="http://www.w3.org/2000/svg" viewBox="0 0 70 70">
  <svg xmlns="http://www.w3.org/2000/svg" viewBox="0 0 70 70">
    <g fill="#DABF10" fill-rule="evenodd">
      <path d="M34.8 4.2c-.2 0-.4.4-.6.9l-1.2 4-1.5.6 1 1.1-.6 2-1.4.5 1 1.2a93 93 0 0 0-.4 1.8l-1.6.6 1.2 1.4-.5 2.5-1 .4.8 1c-.2 2-.2 4 0 5.4.3 2.3 2 5 2.9 7.2l1.2 2.9c.7 2.3 1.4 1.5 2 0 1.1-2.5 1.8-5 3-7.7.7-2.3.9-5 .7-7.5l1.1-1.3-1.3-.5a42 42 0 0 0-.4-2.2l1.4-1.6-1.8-.7-.4-1.5 1.2-1.4-1.8-.6-.4-1.7 1.2-1.3-1.8-.7-.4-1.3v-.2l1-1.5-1.8-.7c-.2-.6-.4-1.2-.9-1.2Zm-1 44.5 4-9.4-.6-1.4 1.3-.1.5-1.4-.6-1.4h1.3l.6-1.4-.7-1.5H41l.6-1.3-.7-1.5 1.4-.1.6-1.2-.7-1.6h1.4l.5-1.2-.7-1.6 1.6-.1.4-1-.8-1.8 1.8-.1.4-.7-1-2 2-.2 1-1.8c3-4.7 2.6-2.8 2.2 4.2-.7 11.2-.3 15-8.3 24-4.6 5.1-9.4 9.3-8.8 4.6Z"/>
      <path d="M36.3 65.7c-5.6.5-11.3-1.5-14.8-6.6 6.4 1 14-5.2 21-12.5V45l.9.6L45 44l-.1-1.8 1 .7 1.4-1.5v-2l1.1.8 1.1-1.2v-1.8l1 .7.7-.8-.1-1.9 1.1.7 1.4-1.5-.2-2.3 1.4 1 .8-.9-.2-2.5 1.6 1 .9-1-.1-2 1.3.9.7-.7-.2-1.8 1.3.8c.6-.7 1.5-.4 1 .7-1.9 6-3.7 12-6 17.6-4 9.5-7.9 19.3-19.6 20.5Zm-6-29.9 1.1.1-.5 1.2c1 2.4 2.5 5.6 2.4 7.7a4.4 4.4 0 0 1-1.6 3.1 42 42 0 0 1-6.1-6c-5.5-6.5-5.1-8.2-6-16.2l-1-10.5c-.2-1.2-.2-1.9.1-2 .6-.4 1.8 2 2.1 2.6h2l-.8 2 .4.8 1.7.2-.8 1.6.6 1.1 1.4.1-.7 1.5.6 1.3h1.3l-.6 1.4.7 1.5h1.1l-.5 1.3.5 1 .2.5h1l-.5 1.3.7 1.6h1.1l-.5 1.2.6 1.6Z"/>
      <path d="m26.7 45.6 1.4-.3-.2 1.5 2.8 3c2.4 2 1.8 3.8-.8 5.5-4.8 3.2-8.8 3.1-12.4-2C15.2 50 13.6 44 12.3 40L8 27.8c-.4-1.2.4-1.3 1-.8l.4.5 1.8-.5-.3 2 .7.7 1.7-.4-.3 2 .7.7 1.7-.4-.3 1.9.6.6 2-.4-.3 2.2.6.6 1.8-.5-.3 2.1.6.6 1.6-.3-.2 1.8.8.8 1.5-.3-.2 1.7.9 1L26 43l-.2 1.6 1 1Z"/>
    </g>
  </svg>
  <style>
    @media (prefers-color-scheme:light){:root{filter:none}}
  </style>
</svg>
