<svg xmlns="http://www.w3.org/2000/svg" viewBox="0 0 200 78">
  <g fill="none" fill-rule="evenodd">
    <g fill="#DABF10">
      <path d="M39.8 5c-.2 0-.4.3-.6.8l-1.2 4-1.5.6 1 1.2-.6 1.9-1.4.5 1 1.2a93 93 0 0 0-.4 1.8l-1.6.6 1.2 1.4-.5 2.5-1 .4.8 1c-.2 2-.2 4 0 5.5.3 2.2 2 5 2.9 7.2l1.2 2.8c.7 2.3 1.4 1.6 2 0 1.1-2.5 1.8-5 3-7.6.7-2.4.9-5 .7-7.6l1.1-1.3-1.3-.5a42 42 0 0 0-.4-2.2l1.4-1.6-1.8-.6-.4-1.6 1.2-1.4-1.8-.6-.4-1.6 1.2-1.4-1.8-.6-.4-1.4v-.2l1.1-1.4-1.8-.6c-.2-.6-.4-1.3-.9-1.2Zm-1 44.5 4-9.5-.6-1.4h1.3l.5-1.4-.6-1.5h1.3l.6-1.4-.7-1.4H46l.6-1.4-.7-1.5h1.4l.6-1.3-.7-1.5 1.4-.1.5-1.1-.7-1.7H50l.4-1-.8-1.8 1.8-.2.4-.7-1-2 2-.1 1-1.9c3-4.6 2.6-2.7 2.2 4.2-.7 11.2-.3 15-8.3 24-4.6 5.2-9.4 9.3-8.8 4.7Z"/>
      <path d="M41.3 66.4C35.7 67 30 65 26.5 59.8c6.4 1 14-5.2 21-12.5v-1.5l.9.6 1.6-1.7-.1-1.7 1 .7 1.4-1.5v-2l1.1.8 1.1-1.3V38l1 .7.7-.8-.1-1.8 1.1.7 1.4-1.5-.2-2.3 1.4.9.8-.9-.2-2.5 1.6 1 .9-.9-.1-2 1.3.8.7-.6-.2-1.9 1.3.8c.6-.6 1.5-.4 1 .7-1.9 6-3.7 12.1-6 17.6-4 9.6-7.9 19.4-19.6 20.5Zm-6-29.8h1.1l-.5 1.2c1 2.4 2.5 5.6 2.4 7.8a4.4 4.4 0 0 1-1.6 3 42 42 0 0 1-6.1-6c-5.5-6.5-5.1-8.1-6-16.1l-1-10.5c-.2-1.2-.2-2 .1-2.1.6-.4 1.8 2 2.1 2.6l2 .1-.8 2 .4.8h1.7l-.8 1.7.6 1.2h1.4l-.7 1.5.6 1.3 1.3.1-.6 1.4.7 1.4h1.1l-.5 1.3.5 1.1.2.5h1l-.5 1.2.7 1.6h1.1l-.5 1.3.6 1.6Z"/>
      <path d="m31.7 46.3 1.4-.3-.2 1.6 2.8 3c2.4 1.9 1.8 3.7-.8 5.4-4.8 3.2-8.8 3.2-12.4-2-2.3-3.2-3.9-9.3-5.2-13.3L13 28.6c-.4-1.3.4-1.3 1-.9l.4.5 1.8-.4-.3 2 .7.7 1.7-.4L18 32l.7.8 1.7-.4-.3 1.8.6.7 2-.5-.3 2.2.6.6 1.8-.4-.3 2 .6.7 1.6-.4-.2 1.8.8.9 1.5-.4-.2 1.7.9 1 1.4-.4-.2 1.7 1 1Z"/>
    </g>
    <path fill="#273518" fill-rule="nonzero" d="M90 29.7v3.6H77v-3.6h13Zm-9.7 1.8L79 38.7l-2-2.2h13.8v4H74l1.4-9-1.4-9h16.6v4H77.1l2-2.2 1.2 7.2Zm25.2 9-.6-5.1.8-1.7-.8-2.1 1.2-9.6h5l-1.4 11.3 1 7.2h-5.2Zm1.1-6.8c-.2 1.4-.7 2.7-1.3 3.8-.7 1-1.5 1.9-2.6 2.5-1 .6-2.1.9-3.4.9-1.4 0-2.5-.3-3.6-1-1-.5-1.8-1.4-2.3-2.5a8 8 0 0 1-1-3.7 8 8 0 0 1 1-3.9 6.4 6.4 0 0 1 5.9-3.4c1.3 0 2.4.3 3.4.9a7 7 0 0 1 2.6 2.5c.7 1 1 2.4 1.3 3.9Zm-9.1 0c0 .6.1 1.2.4 1.8a3.1 3.1 0 0 0 2.8 1.6c.7 0 1.3-.1 2-.4a5.4 5.4 0 0 0 2.6-3 5.3 5.3 0 0 0-2.7-3.1 4 4 0 0 0-1.9-.5 3.2 3.2 0 0 0-2.8 1.7 4 4 0 0 0-.4 1.9Zm23.4 7.2c-1.7 0-3.2-.3-4.5-1a7.5 7.5 0 0 1-3-2.5 6.6 6.6 0 0 1-1.2-3.8 7 7 0 0 1 1.1-3.8c.7-1 1.7-1.9 3-2.5a9.7 9.7 0 0 1 8.4.2 7 7 0 0 1 2.7 3c.7 1.3 1 2.8 1 4.6h-12.2v-3h9.4l-1.6 1c0-.7-.2-1.3-.5-1.8a3 3 0 0 0-1.2-1c-.4-.3-1-.5-1.7-.5s-1.3.2-1.8.5-1 .7-1.2 1.2a3 3 0 0 0-.4 1.7c0 .9.2 1.6.5 2.2.4.6 1 1 1.8 1.4.7.3 1.7.5 2.8.5a11.8 11.8 0 0 0 5.7-1.5v3c-1 .7-2 1.2-3.2 1.6-1.2.3-2.5.5-4 .5Zm8.8-14.1h5l.8 5.5v8.2h-4.9v-9l-.9-4.7Zm10.9-.4c1.3 0 2.4.3 3.3.8 1 .5 1.7 1.3 2.2 2.2.5 1 .7 2.1.7 3.4v7.7h-4.9v-7c0-1-.3-1.8-.8-2.3-.5-.6-1.2-.8-2.2-.8-.7 0-1.3.1-1.8.4A3 3 0 0 0 136 32a4 4 0 0 0-.5 1.9l-1.5-.8c.2-1.4.6-2.7 1.3-3.7.6-1 1.3-1.7 2.3-2.2.9-.6 1.9-.8 3-.8Zm8.3 4.5 2.4-5 .3 1.7a2.7 2.7 0 0 1-2.4-1.3c-.2-.4-.4-.9-.4-1.4 0-.5.2-1 .4-1.3a2.7 2.7 0 0 1 2.4-1.3 2.7 2.7 0 0 1 2.7 2.7l-.3 1.5-1.2 2-1.6 2.4H149Zm22.4 5.1c0 1-.3 2-1 2.7a6 6 0 0 1-2.7 1.6c-1.2.4-2.6.6-4.2.6-1.8 0-3.3-.2-4.5-.6-1.3-.5-2.3-1-3-1.8a4 4 0 0 1-1.2-2.6h5c0 .4.3.7.6 1l1.3.5c.6.2 1.2.2 2 .2 1 0 1.7 0 2.2-.2.5-.2.8-.5.8-1 0-.2-.2-.4-.6-.6-.4-.1-1-.3-2-.3l-2.4-.2a12 12 0 0 1-3.9-.8A3.5 3.5 0 0 1 155 31a4 4 0 0 1 1-2.6 6 6 0 0 1 2.7-1.5 14.4 14.4 0 0 1 8.2 0c1.2.5 2.2 1 2.9 1.8a4 4 0 0 1 1.2 2.5h-5c0-.3-.2-.6-.5-.9l-1-.6a6 6 0 0 0-2-.2c-.8 0-1.5 0-2 .3-.4.2-.6.4-.6.8 0 .3.1.5.4.6.3.2.8.3 1.6.4l3.2.2c1.5.1 2.8.3 3.7.7a4 4 0 0 1 2 1.4c.3.6.5 1.3.5 2.1ZM78.1 51.4h6.6c.8 0 1.4-.2 1.8-.6.5-.3.7-.9.7-1.5 0-.7-.2-1.2-.7-1.6a3 3 0 0 0-1.8-.5h-7.3l2.2-2.4v16.7h-5v-18h10.8c1.3 0 2.5.2 3.6.7 1 .5 1.8 1.2 2.4 2 .5.9.8 2 .8 3a5.4 5.4 0 0 1-3.2 5.1c-1 .5-2.3.7-3.6.7H78v-3.6Zm2.7 1.7h5.6l6.4 8.4h-5.7l-6.3-8.4Zm21.3 8.8c-1.6 0-3.1-.3-4.4-1a7.5 7.5 0 0 1-3.1-2.5 6.6 6.6 0 0 1-1.1-3.8 7 7 0 0 1 1-3.8c.8-1 1.8-1.9 3-2.5a9.7 9.7 0 0 1 8.5.2 7 7 0 0 1 2.7 3c.6 1.3 1 2.8 1 4.6H97.3v-3h9.5l-1.6 1c-.1-.7-.3-1.3-.6-1.8a3 3 0 0 0-1.1-1c-.5-.3-1-.5-1.7-.5s-1.3.2-1.9.5c-.5.3-.9.7-1.2 1.2-.2.5-.4 1-.4 1.7 0 .9.2 1.6.6 2.2.4.6 1 1 1.7 1.4.8.3 1.7.5 2.8.5a11.8 11.8 0 0 0 5.8-1.5v3c-1 .7-2 1.2-3.3 1.6a16 16 0 0 1-3.9.5Zm8.1-10.5v-2.1l2.8-1.1 2.1-4.1h2.8v3.7h5.8v3.6h-5.8v4c0 1 .2 1.7.6 2.1.4.4 1.1.6 2.2.6a8 8 0 0 0 3.2-.6v3.7l-1.9.5-2.4.2c-1.5 0-2.8-.2-3.7-.7-1-.5-1.7-1.1-2.2-2-.5-.9-.7-2-.7-3v-4.8h-2.8Zm15-3.6h5l.9 4.9v8.8h-5v-9.1l-.9-4.6Zm12.3-.2v4.2a13.3 13.3 0 0 0-2.5-.3c-.7 0-1.4.1-2 .4-.6.3-1 .8-1.4 1.4-.4.6-.5 1.5-.5 2.6l-1-1.2c.1-1 .3-2 .6-2.8l1-2.3a5 5 0 0 1 1.7-1.6c.6-.4 1.4-.6 2.4-.6a7.6 7.6 0 0 1 1.7.2Zm9.3 14.3c-1.6 0-3.1-.3-4.4-1a7.5 7.5 0 0 1-3-2.5 6.6 6.6 0 0 1-1.2-3.8 7 7 0 0 1 1-3.8c.8-1 1.8-1.9 3-2.5a9.7 9.7 0 0 1 8.5.2 7 7 0 0 1 2.7 3c.6 1.3 1 2.8 1 4.6H142v-3h9.5l-1.6 1c-.1-.7-.3-1.3-.6-1.8a3 3 0 0 0-1.1-1c-.5-.3-1-.5-1.7-.5s-1.3.2-1.8.5c-.6.3-1 .7-1.2 1.2-.3.5-.5 1-.5 1.7 0 .9.2 1.6.6 2.2.4.6 1 1 1.7 1.4.8.3 1.7.5 2.8.5a11.8 11.8 0 0 0 5.8-1.5v3c-1 .7-2 1.2-3.3 1.6a16 16 0 0 1-3.9.5Zm22-.4-.6-5 .6-1.8-.6-2 .6-4.9h5.1l-.9 6.8.9 6.9h-5Zm1.2-6.8c-.3 1.4-.7 2.7-1.4 3.8a6.7 6.7 0 0 1-6 3.4 6 6 0 0 1-3.5-1c-1-.5-1.8-1.4-2.4-2.5a8 8 0 0 1-.9-3.7 8 8 0 0 1 1-3.9 6.4 6.4 0 0 1 5.8-3.4 6.8 6.8 0 0 1 6 3.4 9 9 0 0 1 1.4 3.9Zm-9.2 0c0 .6.2 1.2.4 1.8a3.1 3.1 0 0 0 2.9 1.6 4 4 0 0 0 1.9-.4 5.4 5.4 0 0 0 2.6-3 5.3 5.3 0 0 0-2.6-3.1 4 4 0 0 0-1.9-.5 3.2 3.2 0 0 0-2.9 1.7c-.2.6-.4 1.2-.4 1.9Zm14.2-3.3v-2.1l2.8-1.1L180 44h2.8v3.7h5.8v3.6h-5.8v4c0 1 .2 1.7.6 2.1.4.4 1.2.6 2.2.6a8 8 0 0 0 3.2-.6v3.7l-1.9.5-2.4.2c-1.5 0-2.8-.2-3.7-.7-1-.5-1.7-1.1-2.2-2-.4-.9-.7-2-.7-3v-4.8H175Z"/>
  </g>
</svg>
